<svg width="24" height="24" viewBox="0 0 24 24" fill="none" xmlns="http://www.w3.org/2000/svg">
<path fill-rule="evenodd" clip-rule="evenodd" d="M17.2506 5.17544C17.2506 6.01711 17.9344 6.69947 18.778 6.69947C19.6216 6.69947 20.3054 6.01711 20.3054 5.17544C20.3054 4.33372 19.6216 3.65137 18.778 3.65137C17.9344 3.65137 17.2506 4.33372 17.2506 5.17544ZM7.7401 11.9542C7.7401 9.61608 9.63973 7.7207 11.983 7.7207C14.3263 7.7207 16.2259 9.61608 16.2259 11.9542C16.2259 14.2923 14.3263 16.1876 11.983 16.1876C9.63973 16.1876 7.7401 14.2923 7.7401 11.9542ZM11.9842 18.4787C8.37426 18.4787 5.44788 15.5588 5.44788 11.9569C5.44788 8.35495 8.37426 5.43506 11.9842 5.43506C15.5941 5.43506 18.5205 8.35495 18.5205 11.9569C18.5205 15.5588 15.5941 18.4787 11.9842 18.4787ZM22.3157 1.68426C21.8035 1.17206 21.3159 0.854844 20.6327 0.589341C20.1169 0.388852 19.3418 0.150434 17.9147 0.0853134C16.3713 0.0149045 15.9083 0 12 0C8.09164 0 7.62869 0.0149045 6.08519 0.0853134C4.6581 0.150434 3.88307 0.388852 3.36729 0.589341C2.68403 0.854844 2.19646 1.17206 1.68426 1.68426C1.17206 2.19646 0.854844 2.68409 0.589288 3.36729C0.388852 3.88307 0.150434 4.65816 0.0853134 6.08525C0.0149045 7.62869 0 8.09164 0 12C0 15.9084 0.0149045 16.3713 0.0853134 17.9148C0.150434 19.3418 0.388852 20.1169 0.589288 20.6327C0.854844 21.3159 1.17206 21.8035 1.68426 22.3157C2.19646 22.8279 2.68403 23.1452 3.36729 23.4107C3.88307 23.6111 4.6581 23.8496 6.08525 23.9147C7.62847 23.9851 8.09137 24 12 24C15.9086 24 16.3715 23.9851 17.9147 23.9147C19.3418 23.8496 20.1169 23.6111 20.6327 23.4107C21.3159 23.1452 21.8035 22.8279 22.3157 22.3157C22.8279 21.8035 23.1452 21.3159 23.4107 20.6327C23.6111 20.1169 23.8496 19.3418 23.9147 17.9148C23.9851 16.3713 24 15.9084 24 12C24 8.09164 23.9851 7.62869 23.9147 6.08525C23.8496 4.65816 23.6111 3.88307 23.4107 3.36729C23.1452 2.68409 22.8279 2.19646 22.3157 1.68426Z" fill="#3D3D3D"/>
</svg>
