<svg width="131" height="41" viewBox="0 0 131 41" fill="none" xmlns="http://www.w3.org/2000/svg">
<path d="M116.527 9.78601C116.427 9.6218 116.166 9.5221 116.002 9.5221H113.208C112.648 9.5221 112.451 10.047 112.747 10.4751L118.926 19.1195L112.519 28.0923C112.222 28.5204 112.419 29.0775 112.947 29.0775H115.806C116.034 29.0775 116.199 28.9456 116.298 28.8136L121.063 22.1427L125.828 28.8136C125.96 28.9456 126.124 29.0775 126.353 29.0775H129.18C129.74 29.0775 129.936 28.5175 129.64 28.0923L123.198 19.1195L129.376 10.4751C129.672 10.047 129.476 9.5221 128.948 9.5221H126.154C125.99 9.5221 125.726 9.6218 125.594 9.78601L121.057 16.1286L116.527 9.78601ZM96.5786 28.453C96.5786 28.8136 96.8426 29.0775 97.2032 29.0775H109.035C109.396 29.0775 109.66 28.8136 109.66 28.453V26.5792C109.66 26.2186 109.396 25.9869 109.035 25.9869H100.326V20.6003H108.147C108.507 20.6003 108.739 20.3364 108.739 19.9757V18.1342C108.739 17.7736 108.51 17.5097 108.147 17.5097H100.326V12.6127H108.771C109.132 12.6127 109.396 12.3488 109.396 11.9882V10.1174C109.396 9.8212 109.132 9.52504 108.771 9.52504H97.2032C96.8426 9.52504 96.5786 9.8212 96.5786 10.1174V28.453ZM80.1813 28.453C80.1813 28.8136 80.4452 29.0775 80.8059 29.0775H93.1948C93.491 29.0775 93.7871 28.8136 93.7871 28.453V26.5792C93.7871 26.2186 93.491 25.9869 93.1948 25.9869H83.9258V10.1174C83.9258 9.8212 83.6971 9.52504 83.3335 9.52504H80.8029C80.4423 9.52504 80.1784 9.8212 80.1784 10.1174V28.453H80.1813ZM68.9418 12.6127C71.7011 12.6127 73.0822 13.5012 73.0822 15.8676C73.0822 18.2339 71.7011 19.1224 68.9418 19.1224H66.5755V12.6127H68.9418ZM76.8942 15.8676C76.8942 11.7594 73.9033 9.52504 69.2702 9.52504H63.4526C63.0919 9.52504 62.828 9.8212 62.828 10.1174V28.4559C62.828 28.8166 63.0919 29.0805 63.4526 29.0805H65.9831C66.2793 29.0805 66.5755 28.8166 66.5755 28.4559V22.2101H69.2702C73.9033 22.2101 76.8942 19.9083 76.8942 15.8676ZM44.2607 28.453C44.2607 28.7491 44.5892 29.0775 44.8853 29.0775H58.6231C58.9838 29.0775 59.2154 28.7491 59.2154 28.453V26.3505C59.2154 25.9547 58.9867 25.7259 58.6231 25.7259H48.1402V18.923H57.5059C57.8988 18.923 58.1305 18.5946 58.1305 18.2984V16.196C58.1305 15.8353 57.9018 15.5714 57.5059 15.5714H48.1402V9.42534H58.2947C58.6554 9.42534 58.9193 9.16143 58.9193 8.80076V6.69831C58.9193 6.33764 58.6554 6.07373 58.2947 6.07373H44.8853C44.5892 6.07373 44.2607 6.33764 44.2607 6.69831V28.453Z" fill="#333333"/>
<path d="M5.44306 5.44306C-1.81435 12.7005 -1.81435 24.4678 5.44306 31.7252C12.7005 38.9826 24.4678 38.9826 31.7222 31.7252C25.5527 37.8918 15.5507 37.8918 9.38406 31.7252C3.21452 25.5556 3.21452 15.5536 9.38406 9.38699C15.5536 3.21745 25.5556 3.21745 31.7222 9.38699C37.8918 15.5565 37.8918 25.5586 31.7222 31.7252C38.9797 24.4678 38.9797 12.7005 31.7222 5.44306C24.4678 -1.81435 12.7005 -1.81435 5.44306 5.44306Z" fill="#666666"/>
<path d="M28.7519 18.2688C28.7167 18.131 28.6727 17.9961 28.6316 17.8641C28.6727 17.999 28.7167 18.131 28.7519 18.2688ZM12.1082 12.1081C7.48103 16.7352 7.48103 24.236 12.1082 28.8632C16.7353 33.4903 24.2361 33.4903 28.8633 28.8632C24.9311 32.7954 18.5534 32.7954 14.6212 28.8632C14.413 28.655 14.2165 28.435 14.0288 28.2151C15.1167 29.1271 16.4157 29.822 17.8789 30.212C23.2509 31.6518 28.7724 28.4644 30.2121 23.0924C28.9894 27.658 24.2948 30.3674 19.7292 29.1447C19.4858 29.0801 19.2512 29.001 19.0196 28.9189C20.2072 29.1271 21.4593 29.086 22.7025 28.7547C27.2681 27.5319 29.9776 22.8373 28.7548 18.2717C29.7957 22.1541 27.491 26.142 23.6116 27.183C19.7292 28.221 15.7413 25.9191 14.7003 22.0368C13.6594 18.1544 15.9641 14.1665 19.8436 13.1256C23.5881 12.1227 27.4323 14.231 28.6316 17.8671C27.7989 15.272 25.8254 13.3279 23.421 12.4482C23.6673 12.4922 23.9136 12.545 24.1599 12.6095C28.5818 13.7941 31.2648 18.2365 30.3148 22.6643C31.0156 19.5121 30.1476 16.3481 28.2035 14.0228C28.4293 14.2134 28.6492 14.4099 28.8603 14.621C32.7925 18.5532 32.7925 24.928 28.8603 28.8632C33.4875 24.236 33.4875 16.7352 28.8603 12.1081C24.2361 7.48091 16.7353 7.48091 12.1082 12.1081Z" fill="#FF0000"/>
<path d="M35.0739 41.0002V38.7687C67.0446 30.0246 99.0153 44.5981 130.989 35.854V38.0855C99.0183 46.8296 67.0446 32.2561 35.0739 41.0002Z" fill="#FF0000"/>
</svg>
