<svg width="131" height="41" viewBox="0 0 131 41" fill="none" xmlns="http://www.w3.org/2000/svg">
<path d="M116.527 9.7858C116.427 9.62159 116.166 9.52189 116.002 9.52189H113.208C112.648 9.52189 112.451 10.0468 112.747 10.4749L118.926 19.1193L112.519 28.0921C112.222 28.5202 112.419 29.0773 112.947 29.0773H115.806C116.034 29.0773 116.199 28.9454 116.298 28.8134L121.063 22.1425L125.828 28.8134C125.96 28.9454 126.124 29.0773 126.353 29.0773H129.18C129.74 29.0773 129.936 28.5173 129.64 28.0921L123.198 19.1193L129.376 10.4749C129.672 10.0468 129.476 9.52189 128.948 9.52189H126.154C125.99 9.52189 125.726 9.62159 125.594 9.7858L121.057 16.1283L116.527 9.7858ZM96.5786 28.4528C96.5786 28.8134 96.8426 29.0773 97.2032 29.0773H109.035C109.396 29.0773 109.66 28.8134 109.66 28.4528V26.579C109.66 26.2183 109.396 25.9867 109.035 25.9867H100.326V20.6001H108.147C108.507 20.6001 108.739 20.3362 108.739 19.9755V18.134C108.739 17.7734 108.51 17.5094 108.147 17.5094H100.326V12.6125H108.771C109.132 12.6125 109.396 12.3486 109.396 11.9879V10.1171C109.396 9.82098 109.132 9.52482 108.771 9.52482H97.2032C96.8426 9.52482 96.5786 9.82098 96.5786 10.1171V28.4528ZM80.1813 28.4528C80.1813 28.8134 80.4452 29.0773 80.8059 29.0773H93.1948C93.491 29.0773 93.7871 28.8134 93.7871 28.4528V26.579C93.7871 26.2183 93.491 25.9867 93.1948 25.9867H83.9258V10.1171C83.9258 9.82098 83.6971 9.52482 83.3335 9.52482H80.8029C80.4423 9.52482 80.1784 9.82098 80.1784 10.1171V28.4528H80.1813ZM68.9418 12.6125C71.7011 12.6125 73.0822 13.501 73.0822 15.8674C73.0822 18.2337 71.7011 19.1222 68.9418 19.1222H66.5755V12.6125H68.9418ZM76.8942 15.8674C76.8942 11.7592 73.9033 9.52482 69.2702 9.52482H63.4526C63.0919 9.52482 62.828 9.82098 62.828 10.1171V28.4557C62.828 28.8164 63.0919 29.0803 63.4526 29.0803H65.9831C66.2793 29.0803 66.5755 28.8164 66.5755 28.4557V22.2099H69.2702C73.9033 22.2099 76.8942 19.9081 76.8942 15.8674ZM44.2607 28.4528C44.2607 28.7489 44.5892 29.0773 44.8853 29.0773H58.6231C58.9838 29.0773 59.2154 28.7489 59.2154 28.4528V26.3503C59.2154 25.9544 58.9867 25.7257 58.6231 25.7257H48.1402V18.9228H57.5059C57.8988 18.9228 58.1305 18.5944 58.1305 18.2982V16.1958C58.1305 15.8351 57.9018 15.5712 57.5059 15.5712H48.1402V9.42512H58.2947C58.6554 9.42512 58.9193 9.16122 58.9193 8.80055V6.69809C58.9193 6.33742 58.6554 6.07352 58.2947 6.07352H44.8853C44.5892 6.07352 44.2607 6.33742 44.2607 6.69809V28.4528Z" fill="white"/>
<path d="M5.44306 5.44306C-1.81435 12.7005 -1.81435 24.4678 5.44306 31.7252C12.7005 38.9826 24.4678 38.9826 31.7222 31.7252C25.5527 37.8918 15.5507 37.8918 9.38406 31.7252C3.21452 25.5556 3.21452 15.5536 9.38406 9.38699C15.5536 3.21745 25.5556 3.21745 31.7222 9.38699C37.8918 15.5565 37.8918 25.5586 31.7222 31.7252C38.9797 24.4678 38.9797 12.7005 31.7222 5.44306C24.4678 -1.81435 12.7005 -1.81435 5.44306 5.44306Z" fill="white"/>
<path d="M28.7519 18.2689C28.7167 18.1311 28.6727 17.9962 28.6316 17.8642C28.6727 17.9991 28.7167 18.1311 28.7519 18.2689ZM12.1082 12.1082C7.48103 16.7353 7.48103 24.2361 12.1082 28.8633C16.7353 33.4904 24.2361 33.4904 28.8633 28.8633C24.9311 32.7955 18.5534 32.7955 14.6212 28.8633C14.413 28.6551 14.2165 28.4351 14.0288 28.2152C15.1167 29.1272 16.4157 29.8221 17.8789 30.2121C23.2509 31.6519 28.7724 28.4645 30.2121 23.0925C28.9894 27.6581 24.2948 30.3675 19.7292 29.1448C19.4858 29.0802 19.2512 29.0011 19.0196 28.919C20.2072 29.1272 21.4593 29.0861 22.7025 28.7548C27.2681 27.532 29.9776 22.8374 28.7548 18.2718C29.7957 22.1542 27.491 26.1421 23.6116 27.183C19.7292 28.2211 15.7413 25.9192 14.7003 22.0369C13.6594 18.1545 15.9641 14.1666 19.8436 13.1257C23.5881 12.1228 27.4323 14.2311 28.6316 17.8672C27.7989 15.2721 25.8254 13.328 23.421 12.4483C23.6673 12.4923 23.9136 12.5451 24.1599 12.6096C28.5818 13.7942 31.2648 18.2366 30.3148 22.6644C31.0156 19.5122 30.1476 16.3482 28.2035 14.0229C28.4293 14.2135 28.6492 14.41 28.8603 14.6211C32.7925 18.5533 32.7925 24.9281 28.8603 28.8633C33.4875 24.2361 33.4875 16.7353 28.8603 12.1082C24.2361 7.481 16.7353 7.481 12.1082 12.1082Z" fill="#FF0000"/>
<path d="M35.0739 41V38.7685C67.0446 30.0244 99.0153 44.5979 130.989 35.8538V38.0853C99.0183 46.8294 67.0446 32.2559 35.0739 41Z" fill="#FF0000"/>
</svg>
