<svg width="32" height="30" viewBox="0 0 32 30" fill="none" xmlns="http://www.w3.org/2000/svg">
<path d="M26 17L28.5 15L31 17" stroke="#FF0000"/>
<path d="M10 12.5L7.5 14.5L5 12.5" stroke="#FF0000"/>
<path d="M2 29.5H17.5V20" stroke="#FF0000"/>
<path d="M21 22.5H23.5C26.2614 22.5 28.5 20.2614 28.5 17.5V15" stroke="#FF0000"/>
<path d="M15 7L12.5 7C9.73858 7 7.5 9.23858 7.5 12L7.5 14.5" stroke="#FF0000"/>
<path d="M18.5 0.5H29.5V11.5H18.5V0.5Z" stroke="#FF0000"/>
<path d="M19 11L29 1" stroke="#FF0000"/>
<rect x="0.5" y="18.5" width="15" height="9" stroke="#FF0000"/>
<path d="M11.5 23C11.5 23.6358 11.1576 24.2495 10.5284 24.7213C9.89913 25.1933 9.00685 25.5 8 25.5C6.99315 25.5 6.10087 25.1933 5.47157 24.7213C4.84243 24.2495 4.5 23.6358 4.5 23C4.5 22.3642 4.84243 21.7505 5.47157 21.2787C6.10087 20.8067 6.99315 20.5 8 20.5C9.00685 20.5 9.89913 20.8067 10.5284 21.2787C11.1576 21.7505 11.5 22.3642 11.5 23Z" stroke="#FF0000"/>
<rect y="18" width="2" height="2" fill="#FF0000"/>
<rect x="14" y="18" width="2" height="2" fill="#FF0000"/>
<rect x="14" y="26" width="2" height="2" fill="#FF0000"/>
<rect y="26" width="2" height="2" fill="#FF0000"/>
</svg>
