<svg width="30" height="18" viewBox="0 0 30 18" fill="none" xmlns="http://www.w3.org/2000/svg">
<path d="M0.5 8.97231V4.5H8.5V10V10.5H9H19H23.5H29.191L27.685 13.512C27.2975 14.2869 26.7591 14.9765 26.1013 15.5403L25.6407 15.9352C24.4626 16.945 22.9622 17.5 21.4105 17.5H1.44752L0.5 8.97231Z" stroke="#FF0000"/>
<path d="M3.6099 4.5L4.4099 0.5H7.5V4.5H3.6099Z" stroke="#FF0000"/>
<rect x="10.5" y="6.5" width="4" height="4" stroke="#FF0000"/>
<rect x="18.5" y="6.5" width="4" height="4" stroke="#FF0000"/>
<rect x="16.5" y="2.5" width="4" height="4" stroke="#FF0000"/>
<rect x="14.5" y="6.5" width="4" height="4" stroke="#FF0000"/>
<rect x="12.5" y="2.5" width="4" height="4" stroke="#FF0000"/>
<rect x="22.5" y="6.5" width="4" height="4" stroke="#FF0000"/>
<rect x="20.5" y="2.5" width="4" height="4" stroke="#FF0000"/>
</svg>
