<svg width="24" height="19" viewBox="0 0 24 19" fill="none" xmlns="http://www.w3.org/2000/svg">
<path fill-rule="evenodd" clip-rule="evenodd" d="M0 16.798C2.1792 18.1563 4.7664 18.9474 7.548 18.9474C16.6056 18.9474 21.558 11.6574 21.558 5.33605C21.558 5.12882 21.5532 4.92395 21.5436 4.71908C22.506 4.04408 23.3412 3.20211 24 2.24289C23.118 2.62421 22.1688 2.88 21.1728 2.99368C22.1892 2.40513 22.968 1.46487 23.3376 0.349342C22.386 0.896447 21.3312 1.29434 20.2104 1.50868C19.3128 0.580263 18.0324 0 16.6164 0C13.8972 0 11.6916 2.13987 11.6916 4.78066C11.6916 5.15724 11.736 5.52079 11.82 5.87132C7.728 5.67237 4.098 3.76816 1.6716 0.873947C1.248 1.58211 1.0044 2.40158 1.0044 3.27908C1.0044 4.93816 1.8732 6.40303 3.1944 7.2604C2.3868 7.2379 1.6284 7.02118 0.9636 6.66237C0.9636 6.6825 0.9636 6.70263 0.9636 6.72276C0.9636 9.03908 2.6628 10.9741 4.9128 11.4134C4.5012 11.5236 4.0656 11.5804 3.6168 11.5804C3.2988 11.5804 2.9904 11.552 2.6904 11.4951C3.3156 13.397 5.1348 14.7801 7.2888 14.8168C5.604 16.1005 3.4836 16.8632 1.1748 16.8632C0.7776 16.8632 0.3864 16.8442 0 16.798Z" fill="#3D3D3D"/>
</svg>
